<svg xmlns="http://www.w3.org/2000/svg" xmlns:xlink="http://www.w3.org/1999/xlink" id="Layer_1" x="0px" y="0px" viewBox="0 0 340.9348 340.9332" style="enable-background:new 0 0 340.9348 340.9332;" xml:space="preserve"><style type="text/css">	.st0{fill:#B3B3B3;}	.st1{fill:#0039A6;}	.st2{fill:#CC092F;}</style><g>	<g>		<path class="st0" d="M191.709,191.7022l15.1746-0.2088l-7.4028-13.2534l13.0372-7.7746l-13.0372-7.7744l7.4028-13.2458   l-15.1746-0.215l-0.215-15.1779l-13.249,7.4028l-7.7748-13.0372l-7.7746,13.0372l-13.2497-7.4033l-0.2115,15.1783l-15.1774,0.215   l7.4028,13.2458l-13.0372,7.7744l13.0377,7.7746l-7.4033,13.2534l15.1774,0.2088l0.2115,15.1806l13.2497-7.4065l7.7746,13.037   l7.7748-13.037l13.249,7.4061L191.709,191.7022z M187.4135,199.8135l-10.6769-5.9674l-6.2665,10.5071l-6.2663-10.5071   l-10.6769,5.9674l-0.1711-12.2335l-12.2309-0.1712l5.9644-10.6769l-10.5065-6.2658l10.5065-6.2635l-5.9646-10.6806l12.2312-0.1707   l0.1711-12.2312l10.6769,5.9644l6.2663-10.5065l6.2665,10.5065l10.6769-5.9644l0.1712,12.2312l12.2312,0.1707l-5.9646,10.6806   l10.5065,6.2635l-10.5065,6.2661l5.9646,10.6767l-12.2312,0.1712L187.4135,199.8135z M211.8334,42.0918l10.2206,10.6855   l-12.5228-3.488l-12.0932,24.3883l-0.0153-27.1742l-12.2038-2.397l12.2669-5.3033l-0.0573-14.5316l8.9183,11.312l13.6487-6.1446   L211.8334,42.0918z M118.9937,52.7773l10.2148-10.6855l-8.1591-12.6529l13.6491,6.1446l8.9146-11.312l-0.0537,14.5316   l12.2635,5.3033l-12.2033,2.397l-0.016,27.1742l-12.093-24.3883L118.9937,52.7773z M222.054,287.8141l-10.2206,10.6825   l8.1589,12.6526l-13.6456-6.1416l-8.9178,11.309l0.0569-14.5278l-12.2669-5.3037l12.2038-2.397l0.0153-27.1743l12.0932,24.3883   L222.054,287.8141z M155.8229,296.4851l-12.2639,5.3037l0.0536,14.5278l-8.9146-11.309l-13.6491,6.1416l8.1624-12.6526   l-10.2178-10.6825l12.5166,3.488l12.093-24.3883l0.016,27.1743L155.8229,296.4851z M68.9086,82.5924L56.1988,75.55l14.2248-2.2644   l1.2963-14.9106l7.0647,13.2975l14.3098-3.706l-9.1519,9.2246l15.3852,22.4592L75.5969,86.4031l-8.0416,9.4807L68.9086,82.5924z    M24.101,144.0717l12.0236-8.9148l-5.5218-13.301l12.6559,7.1346l10.6163-8.1146l-3.8647,11.8208l23.7118,13.2757l-27.1903-1.3476   l-3.0642,12.6311l-4.3391-14.1329L24.101,144.0717z M305.5845,205.7659l5.5213,13.304l-12.6555-7.1374l-10.6133,8.1145   l3.8646-11.8208L267.99,194.9506l27.1903,1.3471l3.0641-12.6306l4.3356,14.1329l15.028-0.9486L305.5845,205.7659z    M272.1377,257.9979l12.7065,7.0426l-14.2244,2.2646l-1.2963,14.9103l-7.0619-13.2975l-14.313,3.703l9.1552-9.2216   l-15.3882-22.4592l23.7273,13.2471l8.0486-9.4807L272.1377,257.9979z M290.9073,131.9499l-3.9025-11.8085l10.6414,8.08   l12.6273-7.1787l-5.474,13.3198l12.0549,8.8705l-15.0309-0.8948l-4.2913,14.1486l-3.1055-12.6181l-27.1873,1.4389   L290.9073,131.9499z M241.4741,99.409l15.309-22.5128l-9.1835-9.1932l14.3226,3.6557l7.0141-13.3231l1.3501,14.9073l14.2311,2.214   l-12.6815,7.0867l1.398,13.2852l-8.0769-9.4524L241.4741,99.409z M99.5695,241.1824l-15.3091,22.5131l9.1835,9.1898   l-14.3221-3.6524l-7.0178,13.3199l-1.3501-14.9073l-14.2306-2.2108l12.6842-7.0868l-1.401-13.2885l8.08,9.4524L99.5695,241.1824z    M49.4683,208.9738l3.9053,11.8081l-10.6414-8.0795l-12.6306,7.1815l5.474-13.3231l-12.0517-8.8737l15.0306,0.898l4.2887-14.1482   l3.1083,12.6178l27.184-1.4391L49.4683,208.9738z"></path>		<g>			<polygon class="st1" points="131.8428,143.2634 141.6717,143.2824 141.6241,133.5139 118.1436,119.7954    "></polygon>		</g>		<g>			<path class="st1" d="M132.1359,142.7552l9.0253,0.019l-0.0474-8.9687l-21.5582-12.5958L132.1359,142.7552z M142.1828,143.7926    l-10.6321-0.0223l-14.8253-25.3908l25.4035,14.8411L142.1828,143.7926z"></path>		</g>		<g>			<polygon class="st1" points="209.0925,197.6713 199.2606,197.6525 199.3112,207.4212 222.792,221.1395    "></polygon>		</g>		<g>			<path class="st1" d="M199.8175,207.1279l21.5579,12.5957l-12.5767-21.5452l-9.0256-0.019L199.8175,207.1279z M224.2057,222.5572    l-25.4003-14.8441l-0.0537-10.5719l10.6319,0.0221L224.2057,222.5572z"></path>		</g>		<path class="st2" d="M34.192,150.3211l6.1441,20.081l-6.1853,20.192H19.5216L0,170.3043l19.3885-19.9897L34.192,150.3211z    M170.4313,45.8006l-20.0845,6.1476l-0.0063,30.6056l19.989,34.2138l20.2902-34.3465V51.9863l-20.0401-6.1414L170.4313,45.8006z    M150.315,258.5109v30.4349l20.0401,6.1414l0.1484,0.0443l20.0845-6.1448l0.0033-30.6086l-19.986-34.2139L150.315,258.5109z    M256.674,63.0162l7.482-12.773l-7.4634-26.8296l-27.37,6.6033l-7.3875,12.6273l14.3035,15.5366L256.674,63.0162z    M84.2593,277.917L76.7801,290.69l7.4634,26.8296l27.3675-6.6032l7.3868-12.6271l-14.3003-15.5371L84.2593,277.917z    M283.3759,129.3017l-4.6203-20.603l-15.287-14.4045l-26.4757,15.085l-0.1171,0.0697l-19.8249,34.3086l39.8873,0.6166   L283.3759,129.3017z M57.5587,211.6309l4.6201,20.6028l15.287,14.4048l26.4722-15.0812l0.1203-0.0697l19.8251-34.3086   l-39.8873-0.6203L57.5587,211.6309z M104.7715,58.0852l0.1521-0.0348l14.2466-15.4356l-7.4604-12.7857l-27.0349-6.6662   l-7.6817,27.0858l7.3747,12.6338L104.7715,58.0852z M236.1629,282.8492l-0.1516,0.0351l-14.2469,15.4324l7.4569,12.7857   l27.0386,6.6692l7.6817-27.086l-7.3752-12.6369L236.1629,282.8492z M123.5957,144.2635l-19.9897-34.5209L77.0768,94.8228   l-15.2898,14.5657l-4.4845,20.5206l26.675,15.0056L123.5957,144.2635z M217.3389,196.6697l19.989,34.5208l26.5264,14.9168   l15.2903-14.5627l4.4872-20.5208l-26.6747-15.0053L217.3389,196.6697z M321.4165,150.3422h-14.6326l-6.1885,20.1885   l6.1474,20.0842l14.8035,0.0033l19.3885-19.9895L321.4165,150.3422z"></path>		<g>			<polygon class="st1" points="98.39,150.3963 124.0149,164.8545 133.173,159.57 127.7938,150.3963    "></polygon>			<path class="st1" d="M82.4235,150.3146H51.9886l-6.1855,20.192l6.1441,20.081l30.6088,0.0065l34.2111-19.9897L82.4235,150.3146z     M81.6827,180.7908l-10.6836-2.2358l-7.8926,7.534l-1.1774-10.8462l-9.6073-5.183l9.9556-4.4756l1.9553-10.731l7.3315,8.0853    l10.8153-1.4586l-5.4229,9.4728L81.6827,180.7908z"></path>			<polygon class="st1" points="150.3998,242.5444 164.8522,216.9193 159.571,207.7614 150.3998,213.1406    "></polygon>			<polygon class="st1" points="41.7852,121.1878 57.0755,106.6216 61.5625,86.1043 48.6602,78.8436 21.9664,86.7649     29.0313,114.0154    "></polygon>			<polygon class="st1" points="124.0144,176.1663 98.3895,190.6182 127.7934,190.6182 133.1728,181.4473    "></polygon>			<polygon class="st1" points="142.2272,197.1539 131.5953,197.1664 116.7479,222.5449 142.1642,207.7291    "></polygon>			<polygon class="st1" points="164.7674,124.0149 150.315,98.3895 150.315,127.7908 159.486,133.1728    "></polygon>			<polygon class="st1" points="213.602,152.3379 208.2641,161.4647 217.4794,166.768 243.0216,152.2081    "></polygon>			<path class="st1" d="M247.6909,78.3838l-14.3005-15.5371l-20.4384-4.8353l-15.4612,26.4123l-0.0251,39.6246l34.8587-19.3978    L247.6909,78.3838z M222.3587,98.5962l-5.4637-9.4491l-10.8799-0.8523l7.2976-8.1162l-2.5507-10.6128l9.973,4.4317l9.3063-5.7032    l-1.13,10.8525l8.2952,7.0877l-10.6732,2.2763L222.3587,98.5962z"></path>			<polygon class="st1" points="198.7688,133.2065 198.7054,143.7786 209.3372,143.7691 224.1844,118.3881    "></polygon>			<polygon class="st1" points="213.7497,188.2697 243.1691,188.2319 217.541,173.8178 208.3545,179.1747    "></polygon>			<polygon class="st1" points="298.8368,120.4848 311.7013,113.1578 318.6424,86.1918 291.6393,78.2321 278.9295,85.4773     283.5529,106.0831    "></polygon>			<polygon class="st1" points="42.0957,220.4463 29.231,227.7736 22.2897,254.7426 49.2932,262.7025 62.006,255.4576     57.3827,234.8513    "></polygon>			<polygon class="st1" points="190.5327,127.7908 190.5327,98.3895 176.0776,124.0149 181.362,133.1728    "></polygon>			<polygon class="st1" points="189.4699,242.8324 189.0368,213.4158 179.8561,208.1694 174.6478,217.4383    "></polygon>			<path class="st1" d="M232.1645,236.2446l-34.5081-19.4709l-0.2088,39.751l-0.0033,0.1393l15.3439,26.2855l20.5557-4.8383    l14.2466-15.4294l-15.3569-26.3176L232.1645,236.2446z M229.4856,261.5486l0.3723,10.9063l-8.8837-6.3364l-10.2573,3.7281    l3.2815-10.4094l-6.7154-8.6034l10.9135-0.0947l6.1098-9.046l3.461,10.3516l10.4914,3.0112L229.4856,261.5486z"></path>			<path class="st1" d="M295.1303,170.4297l-6.1449-20.0845l-30.6055-0.003l-34.2139,19.9863l34.3432,20.2898h30.4353    L295.1303,170.4297z M278.6594,175.0565l-1.9588,10.7345l-7.3311-8.0851l-10.8158,1.4581l5.4263-9.4691l-4.7292-9.8414    l10.6837,2.233l7.896-7.5342l1.1802,10.849l9.601,5.1835L278.6594,175.0565z"></path>			<polygon class="st1" points="311.9017,226.9197 299.1478,219.7443 283.8578,234.31 279.3735,254.8311 292.273,262.0887     318.9696,254.1671    "></polygon>			<polygon class="st1" points="150.3429,19.5183 150.3429,34.1507 170.383,40.292 170.5314,40.3364 190.6127,34.1916     190.6189,19.3855 170.6294,0    "></polygon>			<polygon class="st1" points="170.4018,300.5971 150.3211,306.7412 150.3146,321.548 170.3038,340.9332 190.5941,321.4149     190.5941,306.7828 170.5507,300.6412    "></polygon>			<path class="st1" d="M93.2437,262.5511l14.3003,15.5338l20.4386,4.8383l15.4609-26.4153l0.0223-39.6216l-34.8527,19.398    L93.2437,262.5511z M118.575,242.0484l5.4637,9.4459l10.8824,0.8562l-7.2964,8.1153l2.547,10.6128l-9.9698-4.4319l-9.3061,5.7001    l1.1298-10.8525l-8.2987-7.0844l10.6739-2.2767L118.575,242.0484z"></path>			<path class="st1" d="M107.5902,62.82L93.3436,78.2523l15.3562,26.3173l0.0697,0.117l34.5081,19.4709l0.2085-39.751v-0.1363    l-15.3404-26.2858L107.5902,62.82z M133.6516,89.8122l-10.9142,0.0915l-6.1096,9.0493l-3.4615-10.3525l-10.487-3.0108    l8.7718-6.4922l-0.3753-10.9101l8.8872,6.3364l10.254-3.7249l-3.2813,10.4099L133.6516,89.8122z"></path>		</g>	</g></g></svg>